<svg width="24" height="24" viewBox="0 0 24 24" fill="none" xmlns="http://www.w3.org/2000/svg">
<path d="M11.5 4C11.2239 4 11 4.23108 11 4.51613C11 4.80118 11.2239 5.03226 11.5 5.03226H12.5C12.7761 5.03226 13 4.80118 13 4.51613C13 4.23108 12.7761 4 12.5 4H11.5Z" fill="black"/>
<path d="M2 17.4193C2 17.1343 2.22386 16.9032 2.5 16.9032H21.5C21.7761 16.9032 22 17.1343 22 17.4193V19.4838C22 19.7689 21.7761 20 21.5 20H2.5C2.22385 20 2 19.7689 2 19.4838V17.4193Z" fill="black"/>
<path fill-rule="evenodd" clip-rule="evenodd" d="M11.9977 5.5484C16.7046 5.5484 20.5675 10.3143 20.9641 16.3871H3.03125C3.42784 10.3143 7.29079 5.5484 11.9977 5.5484V5.5484ZM13.4977 10.4348C13.4977 10.3097 13.4088 10.202 13.2879 10.1961C13.2538 10.1944 13.2196 10.1936 13.1852 10.1936C12.2322 10.1936 11.4216 10.8406 11.1217 11.7434H10.7367C10.598 11.7434 10.4904 11.8583 10.4965 12C10.5026 12.1417 10.6199 12.2566 10.7586 12.2566H11.0112C11.0023 12.3418 10.9977 12.4284 10.9977 12.5161C10.9977 12.6039 11.0023 12.6904 11.0112 12.7757H10.7367C10.598 12.7757 10.4904 12.8905 10.4965 13.0323C10.5026 13.174 10.6199 13.2889 10.7586 13.2889H11.1217C11.4216 14.1917 12.2322 14.8387 13.1852 14.8387C13.2196 14.8387 13.2538 14.8379 13.2879 14.8362C13.4088 14.8303 13.4977 14.7225 13.4977 14.5975C13.4977 14.4389 13.3568 14.3207 13.2031 14.3225L13.1852 14.3226C12.5188 14.3226 11.9314 13.9045 11.6589 13.2889H12.7586C12.8974 13.2889 13.0049 13.174 12.9988 13.0323C12.9928 12.8905 12.8754 12.7757 12.7367 12.7757H11.5148C11.5035 12.6911 11.4977 12.6045 11.4977 12.5161C11.4977 12.4278 11.5035 12.3412 11.5148 12.2566H12.7586C12.8974 12.2566 13.0049 12.1417 12.9988 12C12.9928 11.8583 12.8754 11.7434 12.7367 11.7434H11.6589C11.9314 11.1278 12.5188 10.7097 13.1852 10.7097L13.2031 10.7098C13.3568 10.7115 13.4977 10.5934 13.4977 10.4348Z" fill="black"/>
</svg>
