<svg width="24" height="24" viewBox="0 0 24 24" fill="none" xmlns="http://www.w3.org/2000/svg">
<path d="M13.0556 13.1096C12.7743 12.8649 12.3956 12.7278 12.0011 12.7278C11.6067 12.7278 11.228 12.8649 10.9466 13.1096C10.9466 13.1096 10.1188 13.8424 9.88281 14.0072L10.6072 22H13.4013L14.1257 14.0127C13.9891 13.9468 13.0556 13.1096 13.0556 13.1096Z" fill="#FF7B00"/>
<path d="M7.82082 13.0271C7.55252 12.7947 7.19587 12.6593 6.8207 12.6475C6.44553 12.6356 6.07887 12.7481 5.79253 12.963L4.34375 14.0402L5.73872 20.8752C5.80281 21.1894 5.98967 21.4737 6.26662 21.6783C6.54357 21.883 6.89297 21.9949 7.25372 21.9945H9.78287L9.06263 14.053C8.89912 13.9981 7.82082 13.0271 7.82082 13.0271Z" fill="#FF7B00"/>
<path d="M11.6647 5.91732C11.7716 5.95485 11.8851 5.97532 12 5.97778C12.1438 5.98087 12.2861 5.95074 12.4128 5.89035C12.5394 5.82995 12.6461 5.74138 12.7223 5.63337C12.817 5.50884 12.8674 5.36211 12.8672 5.21202C12.8667 5.09538 12.8362 4.98036 12.778 4.87571C12.7198 4.77107 12.6354 4.67954 12.5312 4.60808C12.4271 4.53663 12.3059 4.48713 12.1769 4.46334C12.0478 4.43955 11.9144 4.4421 11.7867 4.47079C11.6589 4.49949 11.5403 4.55358 11.4397 4.62894C11.3391 4.70431 11.2593 4.79898 11.2062 4.90576C11.1531 5.01253 11.1283 5.1286 11.1335 5.24516C11.1387 5.36172 11.1739 5.47569 11.2363 5.57841C11.3333 5.72986 11.4838 5.84892 11.6647 5.91732V5.91732Z" fill="#FF7B00"/>
<path d="M16.9948 9.11588L16.7589 9.06641L16.7009 8.85757C16.3305 7.57521 15.0121 6.53283 13.3046 6.17743C13.1498 6.35112 12.9508 6.48995 12.7238 6.5826C12.4969 6.67524 12.2484 6.71908 11.9986 6.71053C11.3053 6.71053 10.732 6.20674 10.6989 6.17194C8.99343 6.52733 7.67504 7.55872 7.30664 8.84841L7.25076 9.06641L7.01275 9.12137C6.01607 9.35145 5.15677 9.91061 4.61135 10.684C4.06592 11.4574 3.87579 12.3863 4.08001 13.2799L5.25352 12.4061C5.69694 12.0738 6.26438 11.8998 6.84498 11.9181C7.42558 11.9364 7.97762 12.1457 8.39322 12.505L9.42807 13.3916L10.376 12.5801C10.5885 12.3917 10.8417 12.243 11.1204 12.1429C11.3992 12.0428 11.6978 11.9934 11.9986 11.9975C12.6096 12.001 13.1951 12.2145 13.6316 12.5929L14.5588 13.3953L15.6164 12.4958C16.0325 12.1401 16.583 11.9338 17.1612 11.9168C17.7394 11.8999 18.304 12.0736 18.7458 12.4042L19.9172 13.2799C20.1251 12.3866 19.938 11.4567 19.3942 10.682C18.8505 9.90727 17.9917 9.34671 16.9948 9.11588V9.11588Z" fill="#FF7B00"/>
<path d="M16.1829 13.0161C16.1829 13.0161 15.0694 13.9944 14.9411 14.0384L14.2188 21.9945H16.752C17.1128 21.9949 17.4622 21.8829 17.7391 21.6783C18.0161 21.4737 18.203 21.1894 18.267 20.8752L18.9604 17.4788L19.6496 14.0402L18.2008 12.9575C17.9157 12.7449 17.5518 12.6332 17.1791 12.644C16.8065 12.6549 16.4516 12.7874 16.1829 13.0161V13.0161Z" fill="#FF7B00"/>
<path d="M13.8315 2.00062C13.2873 2.05379 12.7684 2.23257 12.3268 2.51906C12.1234 2.66888 11.9584 2.85535 11.8428 3.06605C11.7271 3.27674 11.6635 3.50682 11.6562 3.74097C11.9318 3.69992 12.2142 3.71179 12.4841 3.77578C12.4858 3.64772 12.5178 3.52139 12.578 3.40496C12.6383 3.28852 12.7254 3.18456 12.8339 3.09979C13.148 2.90031 13.5139 2.77428 13.8977 2.7334C14.0058 2.72365 14.1052 2.67671 14.1745 2.60268C14.2438 2.52866 14.2774 2.43349 14.2682 2.3377C14.2597 2.24211 14.2092 2.15327 14.1276 2.09025C14.0459 2.02723 13.9396 1.99505 13.8315 2.00062V2.00062Z" fill="#FF7B00"/>
</svg>
