<svg width="24" height="24" viewBox="0 0 24 24" fill="none" xmlns="http://www.w3.org/2000/svg">
<path d="M21.4138 20.8281H20.7888V9.26568C20.7888 8.94209 20.5264 8.67975 20.2029 8.67975H17.8591C17.5356 8.67975 17.2732 8.94209 17.2732 9.26568V20.8281H16.1014V13.1719C16.1014 12.8483 15.839 12.586 15.5154 12.586H13.1717C12.8481 12.586 12.5858 12.8483 12.5858 13.1719V20.8281H11.4139V15.3203C11.4139 14.9967 11.1516 14.7344 10.828 14.7344H8.48428C8.16069 14.7344 7.89835 14.9967 7.89835 15.3203V20.8281H6.72649V16.7266C6.72649 16.403 6.46415 16.1406 6.14056 16.1406H3.79685C3.47326 16.1406 3.21092 16.403 3.21092 16.7266V20.8281H2.58593C2.26234 20.8281 2 21.0905 2 21.414C2 21.7376 2.26234 22 2.58593 22H21.4138C21.7374 22 21.9997 21.7376 21.9997 21.414C21.9997 21.0905 21.7374 20.8281 21.4138 20.8281Z" fill="#A6A6A6"/>
<path d="M2.58593 14.59C6.24283 14.59 10.2085 13.2767 13.7524 10.8919C16.5279 9.02414 18.8416 6.6381 20.2788 4.19487L20.8478 6.31857C20.918 6.58037 21.2567 6.80654 21.5655 6.73287C21.8802 6.65779 22.0635 6.32783 21.9797 6.01525L21.0203 2.43442C20.9365 2.12188 20.6153 1.93633 20.3027 2.02012L16.7219 2.97961C16.4093 3.06336 16.2238 3.38464 16.3076 3.69722C16.3913 4.0098 16.7125 4.19534 17.0252 4.11152L19.332 3.49339C17.9912 5.8233 15.7753 8.11813 13.0982 9.91964C9.74555 12.1757 6.01225 13.4182 2.58593 13.4182C2.26234 13.4182 2 13.6805 2 14.0041C2 14.3277 2.26234 14.59 2.58593 14.59V14.59Z" fill="#A6A6A6"/>
</svg>
