<svg width="24" height="24" viewBox="0 0 24 24" fill="none" xmlns="http://www.w3.org/2000/svg">
<g clip-path="url(#clip0_820_15403)">
<path d="M10.7842 3.23527V7.54897C10.7842 8.40702 10.4434 9.22993 9.83666 9.83666C9.22993 10.4434 8.40702 10.7842 7.54897 10.7842H3.23527C2.37723 10.7842 1.55432 10.4434 0.94759 9.83666C0.340858 9.22993 0 8.40702 0 7.54897V3.23527C0 2.37723 0.340858 1.55432 0.94759 0.94759C1.55432 0.340858 2.37723 0 3.23527 0H7.54897C8.40702 0 9.22993 0.340858 9.83666 0.94759C10.4434 1.55432 10.7842 2.37723 10.7842 3.23527ZM20.4901 0H16.1764C15.3183 0 14.4954 0.340858 13.8887 0.94759C13.282 1.55432 12.9411 2.37723 12.9411 3.23527V7.54897C12.9411 8.40702 13.282 9.22993 13.8887 9.83666C14.4954 10.4434 15.3183 10.7842 16.1764 10.7842H20.4901C21.3481 10.7842 22.171 10.4434 22.7778 9.83666C23.3845 9.22993 23.7253 8.40702 23.7253 7.54897V3.23527C23.7253 2.37723 23.3845 1.55432 22.7778 0.94759C22.171 0.340858 21.3481 0 20.4901 0ZM7.54897 12.9411H3.23527C2.37723 12.9411 1.55432 13.282 0.94759 13.8887C0.340858 14.4954 0 15.3183 0 16.1764V20.4901C0 21.3481 0.340858 22.171 0.94759 22.7778C1.55432 23.3845 2.37723 23.7253 3.23527 23.7253H7.54897C8.40702 23.7253 9.22993 23.3845 9.83666 22.7778C10.4434 22.171 10.7842 21.3481 10.7842 20.4901V16.1764C10.7842 15.3183 10.4434 14.4954 9.83666 13.8887C9.22993 13.282 8.40702 12.9411 7.54897 12.9411ZM20.4901 12.9411H16.1764C15.3183 12.9411 14.4954 13.282 13.8887 13.8887C13.282 14.4954 12.9411 15.3183 12.9411 16.1764V20.4901C12.9411 21.3481 13.282 22.171 13.8887 22.7778C14.4954 23.3845 15.3183 23.7253 16.1764 23.7253H20.4901C21.3481 23.7253 22.171 23.3845 22.7778 22.7778C23.3845 22.171 23.7253 21.3481 23.7253 20.4901V16.1764C23.7253 15.3183 23.3845 14.4954 22.7778 13.8887C22.171 13.282 21.3481 12.9411 20.4901 12.9411Z" fill="#FF7B00"/>
</g>
<defs>
<clipPath id="clip0_820_15403">
<rect width="24" height="24" fill="white"/>
</clipPath>
</defs>
</svg>
