<svg width="36" height="36" viewBox="0 0 36 36" fill="none" xmlns="http://www.w3.org/2000/svg">
<path d="M16.6347 34.5C19.1042 34.5 21.17 32.7248 21.6444 30.375H11.625C12.0996 32.7248 14.1654 34.5 16.6347 34.5V34.5Z" fill="#A6A6A6"/>
<path d="M26.1975 17.9988C26.192 17.9988 26.1865 18 26.181 18C20.9192 18 16.6363 13.6824 16.6363 8.37509C16.6363 6.91608 16.9691 5.53689 17.5486 4.29667C17.2485 4.26797 16.9444 4.25009 16.6363 4.25009C11.3649 4.25009 7.0915 8.55914 7.0915 13.875V17.7085C7.0915 20.4296 5.9093 22.9981 3.83526 24.7663C3.14391 25.3618 2.83706 26.3104 3.08524 27.2359C3.37436 28.3125 4.42973 29.0001 5.53703 29.0001H27.7288C28.8905 29.0001 29.9856 28.241 30.2212 27.0929C30.404 26.2047 30.0904 25.3177 29.4073 24.7389C27.4247 23.0629 26.2779 20.6 26.1975 17.9988V17.9988Z" fill="#A6A6A6"/>
<path d="M33.0026 8.37508C33.0026 12.172 29.9503 15.2499 26.1848 15.2499C22.4194 15.2499 19.3672 12.172 19.3672 8.37508C19.3672 4.57814 22.4194 1.5 26.1848 1.5C29.9503 1.5 33.0026 4.57814 33.0026 8.37508Z" fill="#A6A6A6"/>
</svg>
