<svg width="24" height="24" viewBox="0 0 24 24" fill="none" xmlns="http://www.w3.org/2000/svg">
<path d="M20.7778 22L13.4722 14.6944C12.9167 15.1759 12.2685 15.5509 11.5278 15.8194C10.787 16.088 10 16.2222 9.16667 16.2222C7.16667 16.2222 5.47222 15.5278 4.08333 14.1389C2.69444 12.75 2 11.0741 2 9.11111C2 7.14815 2.69444 5.47222 4.08333 4.08333C5.47222 2.69444 7.15741 2 9.13889 2C11.1019 2 12.7731 2.69444 14.1528 4.08333C15.5324 5.47222 16.2222 7.14815 16.2222 9.11111C16.2222 9.90741 16.0926 10.6759 15.8333 11.4167C15.5741 12.1574 15.1852 12.8519 14.6667 13.5L22 20.7778L20.7778 22ZM9.13889 14.5556C10.6389 14.5556 11.9167 14.0231 12.9722 12.9583C14.0278 11.8935 14.5556 10.6111 14.5556 9.11111C14.5556 7.61111 14.0278 6.3287 12.9722 5.26389C11.9167 4.19907 10.6389 3.66667 9.13889 3.66667C7.62037 3.66667 6.3287 4.19907 5.26389 5.26389C4.19907 6.3287 3.66667 7.61111 3.66667 9.11111C3.66667 10.6111 4.19907 11.8935 5.26389 12.9583C6.3287 14.0231 7.62037 14.5556 9.13889 14.5556V14.5556Z" fill="#C9C2C2"/>
</svg>
