<svg width="24" height="26" viewBox="0 0 24 26" fill="none" xmlns="http://www.w3.org/2000/svg">
<path d="M20.8067 10.066C20.4177 10.0063 20.0464 9.85475 19.7206 9.62253C19.3947 9.39032 19.1227 9.08346 18.9247 8.72481C18.7267 8.36615 18.6079 7.96495 18.577 7.55108C18.5462 7.1372 18.6042 6.72131 18.7467 6.33438C18.8372 6.08143 18.8506 5.80488 18.7848 5.54351C18.7191 5.28214 18.5775 5.04905 18.38 4.87693C17.508 4.10362 16.5155 3.49612 15.4467 3.08153C15.2033 2.98604 14.9376 2.97411 14.6874 3.04743C14.4372 3.12076 14.2153 3.2756 14.0533 3.48989C13.8095 3.81916 13.4979 4.08547 13.1421 4.26862C12.7864 4.45177 12.3958 4.54695 12 4.54695C11.6042 4.54695 11.2136 4.45177 10.8579 4.26862C10.5021 4.08547 10.1905 3.81916 9.94668 3.48989C9.78469 3.2756 9.5628 3.12076 9.31262 3.04743C9.06244 2.97411 8.79673 2.98604 8.55334 3.08153C7.56645 3.46429 6.64374 4.01097 5.82001 4.70091C5.61237 4.87451 5.46282 5.11376 5.39324 5.38363C5.32366 5.65349 5.33771 5.93979 5.43335 6.20061C5.58718 6.59777 5.65074 7.02749 5.61893 7.45528C5.58711 7.88307 5.46081 8.29704 5.25015 8.66397C5.03948 9.0309 4.75033 9.34058 4.40587 9.56816C4.06142 9.79575 3.67126 9.93491 3.26668 9.97449C3.00402 10.0041 2.75731 10.1221 2.56289 10.3109C2.36846 10.4998 2.23659 10.7496 2.18668 11.0236C2.06255 11.6725 2.00001 12.3329 2.00001 12.995C1.9991 13.5493 2.04147 14.1027 2.12668 14.6496C2.16909 14.9323 2.29851 15.1924 2.49493 15.3897C2.69136 15.587 2.94384 15.7104 3.21335 15.7409C3.62681 15.7819 4.02496 15.9269 4.37448 16.1637C4.724 16.4006 5.01472 16.7224 5.2223 17.1023C5.42988 17.4821 5.54829 17.909 5.56761 18.3471C5.58693 18.7852 5.5066 19.2218 5.33335 19.6204C5.21996 19.8797 5.19184 20.1715 5.25344 20.4496C5.31504 20.7277 5.46283 20.9761 5.67334 21.1553C6.54009 21.9146 7.52306 22.5122 8.58001 22.9226C8.71517 22.972 8.85698 22.9981 9.00001 23C9.19612 22.9995 9.38927 22.9494 9.56327 22.8539C9.73726 22.7583 9.88703 22.6201 10 22.4508C10.2376 22.0852 10.5561 21.7864 10.9279 21.5802C11.2997 21.3741 11.7135 21.2669 12.1333 21.268C12.5402 21.2685 12.9413 21.3694 13.3047 21.5625C13.6681 21.7556 13.9838 22.0357 14.2267 22.3804C14.3882 22.6097 14.617 22.7762 14.8775 22.8539C15.1379 22.9316 15.4154 22.9161 15.6667 22.8099C16.6331 22.3991 17.5329 21.8313 18.3333 21.1271C18.5344 20.9516 18.6776 20.7132 18.7423 20.4462C18.807 20.1793 18.7898 19.8975 18.6933 19.6415C18.5365 19.2495 18.4682 18.8243 18.4936 18.3996C18.5191 17.9748 18.6377 17.5622 18.84 17.1941C19.0424 16.8261 19.323 16.5128 19.6597 16.2789C19.9963 16.045 20.3799 15.897 20.78 15.8465C21.0395 15.8086 21.2808 15.6845 21.4689 15.4921C21.6571 15.2997 21.7824 15.049 21.8267 14.7763C21.9337 14.1891 21.9917 13.593 22 12.995C22.0001 12.3642 21.9443 11.7349 21.8333 11.1151C21.7883 10.8485 21.6649 10.6036 21.4806 10.4153C21.2963 10.2269 21.0605 10.1047 20.8067 10.066V10.066ZM15.3333 12.995C15.3333 13.6913 15.1378 14.3719 14.7716 14.9508C14.4053 15.5298 13.8847 15.981 13.2756 16.2474C12.6665 16.5139 11.9963 16.5836 11.3497 16.4478C10.7031 16.3119 10.1092 15.9766 9.64299 15.4843C9.17681 14.992 8.85934 14.3647 8.73072 13.6818C8.60211 12.9989 8.66812 12.2911 8.92041 11.6478C9.1727 11.0045 9.59994 10.4547 10.1481 10.0679C10.6963 9.68106 11.3407 9.47459 12 9.47459C12.8841 9.47459 13.7319 9.84549 14.357 10.5057C14.9821 11.1659 15.3333 12.0613 15.3333 12.995Z" fill="#A6A6A6"/>
</svg>
