<svg width="32" height="32" viewBox="0 0 32 32" fill="none" xmlns="http://www.w3.org/2000/svg">
<path d="M28.2891 14.9584H17.0391V3.70835C17.0391 3.13304 16.5727 2.66669 15.9974 2.66669C15.4221 2.66669 14.9557 3.13304 14.9557 3.70835V14.9584H3.70573C3.13042 14.9584 2.66406 15.4247 2.66406 16C2.66406 16.5753 3.13042 17.0417 3.70573 17.0417H14.9557V28.2917C14.9557 28.867 15.4221 29.3334 15.9974 29.3334C16.5727 29.3334 17.0391 28.867 17.0391 28.2917V17.0417H28.2891C28.8644 17.0417 29.3307 16.5753 29.3307 16C29.3307 15.4247 28.8644 14.9584 28.2891 14.9584Z" fill="black"/>
</svg>
