<svg width="24" height="24" viewBox="0 0 24 24" fill="none" xmlns="http://www.w3.org/2000/svg">
<path d="M8.5818 7.31245C8.5818 7.5419 8.3029 7.90124 8.11653 8.07007C7.85948 8.29893 7.85948 8.66975 8.11653 8.89862C8.37358 9.12749 8.79006 9.12749 9.04711 8.89862C9.1345 8.82136 9.89801 8.11815 9.89801 7.31248C9.89801 6.50682 9.13455 5.80357 9.04904 5.72803C8.86074 5.55752 8.58184 5.19818 8.58184 4.96873C8.58184 4.73927 8.86074 4.37994 9.04904 4.20943C9.30416 3.98056 9.30354 3.61091 9.04711 3.38259C8.79006 3.15372 8.37358 3.15372 8.11653 3.38259C8.02914 3.45985 7.26562 4.16306 7.26562 4.96873C7.26562 5.77439 8.02909 6.47764 8.1146 6.55319C8.3029 6.72365 8.5818 7.08299 8.5818 7.31245Z" fill="#A6A6A6"/>
<path d="M12.5349 6.14057C12.5349 6.37002 12.256 6.72936 12.0697 6.89819C11.8126 7.12706 11.8126 7.49788 12.0697 7.72675C12.3267 7.95562 12.7432 7.95562 13.0002 7.72675C13.0876 7.64948 13.8511 6.94628 13.8511 6.14061C13.8511 5.33494 13.0877 4.6317 13.0022 4.55615C12.8139 4.38564 12.535 4.02631 12.535 3.79685C12.535 3.5674 12.8139 3.169 13.0022 2.99849C13.2573 2.76962 13.2567 2.39997 13.0002 2.17165C12.7432 1.94278 12.3267 1.94278 12.0697 2.17165C11.9823 2.24892 11.2188 2.99118 11.2188 3.79685C11.2188 4.60252 11.9822 5.30576 12.0677 5.38131C12.256 5.55178 12.5349 5.91112 12.5349 6.14057V6.14057Z" fill="#A6A6A6"/>
<path d="M8.57874 16.1015H9.8943V14.9365C9.86925 14.7849 9.59355 14.417 9.23621 14.0393C8.87633 14.4198 8.59932 14.7901 8.57812 14.94L8.57874 16.1015Z" fill="#A6A6A6"/>
<path d="M16.4963 18.3902C20.1961 18.0455 22.0704 15.9275 21.993 13.9363C21.9358 12.4606 20.8356 11.4295 19.3176 11.4295C18.9414 11.4295 18.5647 11.4908 18.2098 11.5892C18.2238 11.4217 18.2386 11.2837 18.2547 11.2424C18.443 11.0747 18.4995 10.8229 18.3974 10.6038C18.2958 10.3846 18.0555 10.2421 17.7894 10.2421H9.89238V12.9341C10.3981 13.4098 11.2086 14.2741 11.2086 14.9296V16.6875C11.2086 17.0113 10.9142 17.2734 10.5505 17.2734H7.91812C7.55438 17.2734 7.26004 17.0113 7.26004 16.6875V14.9296C7.26004 14.2741 8.07054 13.4097 8.57621 12.9341V10.2422H3.31152C3.04548 10.2422 2.78325 10.3601 2.68107 10.5786C2.57955 10.7978 2.6136 11.0244 2.8019 11.192C2.8925 11.3545 2.92913 12.0326 2.9587 12.5773C3.1026 15.2427 3.40146 20.8281 10.5517 20.8281C13.6193 20.8281 15.4209 19.7662 16.4963 18.3902V18.3902ZM20.6775 13.9769C20.726 15.2291 19.663 16.6288 17.2672 17.1084C17.9248 15.6562 18.0639 14.0663 18.1305 12.8915C18.4507 12.7176 18.8999 12.6014 19.3176 12.6014C20.2822 12.6014 20.6531 13.3424 20.6775 13.9769V13.9769Z" fill="#A6A6A6"/>
<path d="M2.65809 22H18.4522C18.8159 22 19.1102 21.7379 19.1102 21.4141C19.1102 21.0902 18.8159 20.8281 18.4522 20.8281H2.65809C2.29434 20.8281 2 21.0902 2 21.4141C2 21.7379 2.29434 22 2.65809 22V22Z" fill="#A6A6A6"/>
</svg>
